<?xml version="1.0" encoding="UTF-8" standalone="no"?>
<!DOCTYPE svg PUBLIC "-//W3C//DTD SVG 20010904//EN"
              "http://www.w3.org/TR/2001/REC-SVG-20010904/DTD/svg10.dtd">

<svg xmlns="http://www.w3.org/2000/svg"
     width="3.33333in" height="3.33333in"
     viewBox="0 0 1000 1000">
  <path id="bg"
        fill="#ff9f9f" stroke="none"
        d="M 478.00,0.21
           C 473.09,1.12 471.76,0.95 467.00,1.00
             467.00,1.00 434.00,4.28 434.00,4.28
             402.21,8.47 370.39,15.75 340.00,26.00
             200.56,73.05 90.66,177.67 35.60,314.00
             -16.54,443.11 -10.56,586.98 47.31,713.00
             69.56,761.45 100.68,805.11 136.91,844.00
             136.91,844.00 146.00,854.00 146.00,854.00
             146.00,854.00 156.00,863.09 156.00,863.09
             207.74,911.29 264.33,946.89 331.00,970.69
             360.22,981.12 388.41,988.28 419.00,993.41
             419.00,993.41 467.00,999.00 467.00,999.00
             467.00,999.00 486.00,1000.00 486.00,1000.00
             486.00,1000.00 514.00,1000.00 514.00,1000.00
             514.00,1000.00 533.00,999.00 533.00,999.00
             533.00,999.00 543.00,998.09 543.00,998.09
             569.12,996.18 596.58,991.46 622.00,985.11
             786.96,943.87 919.64,821.10 974.00,660.00
             982.68,634.26 988.92,607.77 993.41,581.00
             993.41,581.00 999.00,533.00 999.00,533.00
             999.00,533.00 1000.00,516.00 1000.00,516.00
             1000.00,516.00 1000.00,486.00 1000.00,486.00
             1000.00,486.00 999.00,467.00 999.00,467.00
             999.00,467.00 997.16,447.00 997.16,447.00
             993.48,412.52 987.31,383.11 977.03,350.00
             925.89,185.44 794.84,61.76 629.00,16.85
             601.33,9.36 571.59,4.00 543.00,1.91
             543.00,1.91 533.00,1.00 533.00,1.00
             533.00,1.00 514.00,0.21 514.00,0.21
             514.00,0.21 478.00,0.21 478.00,0.21 Z" />
  <path id="skewertop"
        fill="white" stroke="none"
        d="M 493.00,224.01
           C 493.00,224.01 508.60,220.73 515.00,221.00
             515.00,221.00 515.01,174.00 515.01,174.00
             515.01,174.00 503.36,112.73 503.36,112.73
             503.36,112.73 493.00,174.00 493.00,174.00
             493.00,174.00 493.00,224.01 493.00,224.01 Z" />
  <path id="skewermid"
        fill="white" stroke="none"
        d="M 495.41,455.49
           C 495.66,455.20 497.28,453.46 498.04,452.91
             498.04,452.91 515.02,452.99 515.02,452.99
             515.02,452.99 514.99,627.47 514.99,627.46
             506.19,618.38 496.96,611.82 493.06,610.16
             493.06,610.16 492.99,459.03 492.99,459.03
             493.80,457.84 495.16,455.79 495.41,455.49 Z" />
  <path id="skewerbottom"
        fill="white" stroke="none"
        d="M 493.00,741.99
           C 510.14,742.00 514.43,736.83 515.00,736.01
             515.00,736.01 515.00,838.02 515.00,838.02
             515.00,838.02 492.98,837.98 492.98,837.98
             492.98,837.98 493.00,741.99 493.00,741.99 Z" />
  <path id="shrimphead"
        fill="white" stroke="none"
        d="M 492.50,438.25
           C 432.50,394.75 432.00,285.25 438.00,259.25
             438.50,244.00 551.50,218.75 637.25,244.50
             666.00,275.50 656.75,384.00 608.00,418.50
             584.00,440.50 505.50,441.50 492.50,438.25 Z" />
  <path id="shrimp2"
        fill="white" stroke="none"
        d="M 423.50,258.62
           C 409.14,351.53 454.73,424.18 470.36,442.00
             466.00,453.75 445.45,476.55 434.36,481.64
             366.00,454.00 288.73,403.82 293.27,367.09
             310.73,317.09 406.23,258.81 423.50,258.62 Z" />
  <path id="shrimp3"
        fill="white" stroke="none"
        d="M 275.75,389.25
           C 335.75,467.25 424.00,490.50 432.50,496.75
             427.75,522.25 426.50,533.00 431.25,550.00
             353.25,581.25 288.00,557.00 263.25,543.50
             229.00,471.75 273.00,399.75 275.75,389.25 Z" />
  <path id="shrimp4"
        fill="white" stroke="none"
        d="M 267.45,565.09
           C 340.18,590.36 391.64,580.36 435.27,564.55
             442.91,579.82 454.00,594.91 462.91,604.55
             448.36,638.18 386.00,679.64 355.27,681.64
             332.91,673.09 278.36,628.73 267.45,565.09 Z" />
  <path id="shrimp5"
        fill="white" stroke="none"
        d="M 475.64,616.73
           C 466.00,636.00 413.45,680.18 376.00,696.18
             390.00,702.38 442.62,735.00 489.64,729.45
             536.65,723.91 543.75,685.88 530.18,662.36
             523.99,651.73 488.36,624.55 475.64,616.73 Z" />
  <path id="shrimptail1"
        fill="white" stroke="none"
        d="M 550.36,673.36
           C 555.12,701.12 550.88,709.38 532.38,730.50
             598.12,737.38 719.50,702.50 721.33,667.33
             706.88,641.62 600.62,661.50 550.36,673.36 Z" />
  <path id="shrimptail2"
        fill="white" stroke="none"
        d="M 584.18,656.36
           C 584.18,656.36 660.55,640.55 702.73,645.45
             706.55,639.82 720.73,620.18 706.55,613.82
             688.73,604.91 584.18,656.36 584.18,656.36 Z" />
</svg>
